# xmcd CD database file
#
# Track frame offsets:
#	150
#	14211
#	26107
#	37832
#	52203
#	66124
#	78529
#	93672
#	105841
#	120078
#	133655
#	146717
#	159549
#	173797
#	187630
#	201967
#	218172
#	231590
#	245832
#	258415
#	271936
#
# Disc length: 3808 seconds
#
# Revision: 0
# Processed by: cddbd v1.4PL0 Copyright (c) Steve Scherf et al.
# Submitted via: NeoAudio 9.9.9
#
DISCID=300ede15
DTITLE=Oscar Peterson - Trio 1945-1950
DYEAR=1997
DGENRE=Jazz
TTITLE0=At Sundown
TTITLE1=Fine And Dandy
TTITLE2=Somebody Loves Me
TTITLE3=Oscar's Blues
TTITLE4=Rockin'in Rhythm
TTITLE5=Poor Butterfly
TTITLE6=I Surrender Dear
TTITLE7=Margie
TTITLE8=Back Home Again In Indiana
TTITLE9=Sweet Georgia Brown
TTITLE10=Time On My Hands
TTITLE11=China Boy
TTITLE12=In A Little Spanish Town
TTITLE13=Sweet Lorraine
TTITLE14=Honeydripper
TTITLE15=East Of The Sun (West Of The Moon)
TTITLE16=My Blue Heaven
TTITLE17=Flying Home
TTITLE18=Hurmoresque
TTITLE19=I Got Rhythm
TTITLE20=The Sheik Of Araby
EXTD=YEAR: 1997
EXTT0=
EXTT1=
EXTT2=
EXTT3=
EXTT4=
EXTT5=
EXTT6=
EXTT7=
EXTT8=
EXTT9=
EXTT10=
EXTT11=
EXTT12=
EXTT13=
EXTT14=
EXTT15=
EXTT16=
EXTT17=
EXTT18=
EXTT19=
EXTT20=
PLAYORDER=
